<svg xmlns="http://www.w3.org/2000/svg" xmlns:xlink="http://www.w3.org/1999/xlink" width="500" zoomAndPan="magnify" viewBox="0 0 375 374.999991" height="500" preserveAspectRatio="xMidYMid meet" version="1.0"><defs><g/><clipPath id="276d95c624"><path d="M 35.386719 28.378906 L 339.605469 28.378906 L 339.605469 332.597656 L 35.386719 332.597656 Z M 35.386719 28.378906 " clip-rule="nonzero"/></clipPath><clipPath id="c87d898e89"><path d="M 187.496094 28.378906 C 103.488281 28.378906 35.386719 96.480469 35.386719 180.488281 C 35.386719 264.496094 103.488281 332.597656 187.496094 332.597656 C 271.503906 332.597656 339.605469 264.496094 339.605469 180.488281 C 339.605469 96.480469 271.503906 28.378906 187.496094 28.378906 Z M 187.496094 28.378906 " clip-rule="nonzero"/></clipPath><clipPath id="67efb45ac1"><path d="M 42.964844 35.957031 L 331.714844 35.957031 L 331.714844 324.707031 L 42.964844 324.707031 Z M 42.964844 35.957031 " clip-rule="nonzero"/></clipPath><clipPath id="ea83539219"><path d="M 187.5 35.957031 C 107.675781 35.957031 42.964844 100.667969 42.964844 180.492188 C 42.964844 260.3125 107.675781 325.023438 187.5 325.023438 C 267.324219 325.023438 332.03125 260.3125 332.03125 180.492188 C 332.03125 100.667969 267.324219 35.957031 187.5 35.957031 Z M 187.5 35.957031 " clip-rule="nonzero"/></clipPath><clipPath id="c38236e407"><path d="M 35.386719 261.449219 L 339.613281 261.449219 L 339.613281 351.90625 L 35.386719 351.90625 Z M 35.386719 261.449219 " clip-rule="nonzero"/></clipPath><clipPath id="fdfe3c185f"><path d="M 0.386719 0.449219 L 304.613281 0.449219 L 304.613281 90.90625 L 0.386719 90.90625 Z M 0.386719 0.449219 " clip-rule="nonzero"/></clipPath><clipPath id="4e7f32f524"><rect x="0" width="305" y="0" height="91"/></clipPath><clipPath id="3f6551a96e"><path d="M 152 62.160156 L 219 62.160156 L 219 202 L 152 202 Z M 152 62.160156 " clip-rule="nonzero"/></clipPath><clipPath id="8c8eafef73"><path d="M 87.800781 211 L 157 211 L 157 257 L 87.800781 257 Z M 87.800781 211 " clip-rule="nonzero"/></clipPath><clipPath id="be97160718"><path d="M 230 236 L 287.300781 236 L 287.300781 273.660156 L 230 273.660156 Z M 230 236 " clip-rule="nonzero"/></clipPath><clipPath id="82ca6b2df0"><rect x="0" width="194" y="0" height="19"/></clipPath><clipPath id="65c02740e0"><rect x="0" width="307" y="0" height="56"/></clipPath></defs><g clip-path="url(#276d95c624)"><g clip-path="url(#c87d898e89)"><path stroke-linecap="butt" transform="matrix(0.75, 0, 0, 0.75, 35.38576, 28.377195)" fill="none" stroke-linejoin="miter" d="M 202.813791 0.00228207 C 90.803367 0.00228207 0.00127788 90.804371 0.00127788 202.814795 C 0.00127788 314.825219 90.803367 405.627309 202.813791 405.627309 C 314.824215 405.627309 405.626305 314.825219 405.626305 202.814795 C 405.626305 90.804371 314.824215 0.00228207 202.813791 0.00228207 Z M 202.813791 0.00228207 " stroke="#1e4164" stroke-width="8" stroke-opacity="1" stroke-miterlimit="4"/></g></g><g clip-path="url(#67efb45ac1)"><g clip-path="url(#ea83539219)"><path stroke-linecap="butt" transform="matrix(0.75, 0, 0, 0.75, 42.965956, 35.957393)" fill="none" stroke-linejoin="miter" d="M 192.712071 -0.000481798 C 86.279773 -0.000481798 -0.0014831 86.280774 -0.0014831 192.713073 C -0.0014831 299.140163 86.279773 385.421419 192.712071 385.421419 C 299.14437 385.421419 385.420417 299.140163 385.420417 192.713073 C 385.420417 86.280774 299.14437 -0.000481798 192.712071 -0.000481798 Z M 192.712071 -0.000481798 " stroke="#1e4164" stroke-width="2" stroke-opacity="1" stroke-miterlimit="4"/></g></g><g clip-path="url(#c38236e407)"><g transform="matrix(1, 0, 0, 1, 35, 261)"><g clip-path="url(#4e7f32f524)"><g clip-path="url(#fdfe3c185f)"><path fill="#ffffff" d="M 0.386719 0.449219 L 304.617188 0.449219 L 304.617188 90.90625 L 0.386719 90.90625 Z M 0.386719 0.449219 " fill-opacity="1" fill-rule="nonzero"/></g></g></g></g><path fill="#7dcbc1" d="M 250.46875 174.015625 L 221.371094 153.472656 L 221.371094 150.425781 L 250.46875 170.96875 Z M 250.46875 181.136719 L 221.371094 160.59375 L 221.371094 157.550781 L 250.46875 178.09375 Z M 250.46875 188.261719 L 221.371094 167.71875 L 221.371094 164.671875 L 250.46875 185.214844 Z M 250.46875 195.382812 L 221.371094 174.839844 L 221.371094 171.792969 L 250.46875 192.335938 Z M 250.46875 202.503906 L 221.371094 181.960938 L 221.371094 178.917969 L 250.46875 199.460938 Z M 250.46875 209.628906 L 221.371094 189.085938 L 221.371094 186.039062 L 250.46875 206.578125 Z M 250.46875 216.75 L 221.371094 196.207031 L 221.371094 193.160156 L 250.46875 213.703125 Z M 221.371094 144.054688 L 215.085938 147.671875 L 215.085938 203.585938 L 217.945312 203.945312 L 219.378906 204.128906 L 220.425781 205.128906 L 226.832031 211.257812 L 242.738281 222.488281 L 247.5625 221.8125 L 221.371094 203.328125 L 221.371094 200.28125 L 250.46875 220.824219 L 250.46875 221.40625 L 251.289062 221.292969 L 253.75 220.949219 L 254.089844 221.371094 L 254.089844 167.152344 Z M 209.199219 151.066406 L 209.199219 174.25 L 207.585938 174.25 L 207.585938 151.996094 L 201.964844 155.238281 L 201.964844 191.480469 L 200.839844 191.480469 L 200.839844 155.886719 L 197.175781 157.996094 L 197.175781 195.816406 L 208.917969 195.816406 L 208.917969 202.808594 L 212.734375 203.289062 L 212.734375 149.03125 L 209.199219 151.066406 " fill-opacity="1" fill-rule="nonzero"/><path fill="#1e4164" d="M 193.957031 240.089844 L 194.273438 240.367188 L 194.273438 242.882812 L 193.957031 242.605469 L 192.796875 241.578125 L 192.796875 239.066406 L 193.957031 240.089844 " fill-opacity="1" fill-rule="nonzero"/><g clip-path="url(#3f6551a96e)"><path fill="#1e4164" d="M 216.488281 111.914062 L 209.433594 105.664062 L 209.433594 91.722656 L 216.488281 97.972656 Z M 216.488281 128.371094 L 209.433594 122.125 L 209.433594 108.183594 L 216.488281 114.433594 Z M 208.167969 104.542969 L 203.582031 100.484375 L 201.109375 98.296875 L 201.109375 84.351562 L 203.582031 86.542969 L 208.167969 90.601562 Z M 208.167969 121 L 203.582031 116.945312 L 201.109375 114.757812 L 201.109375 100.8125 L 203.582031 103 L 208.167969 107.058594 Z M 208.167969 137.460938 L 203.582031 133.402344 L 201.109375 131.21875 L 201.109375 117.273438 L 203.582031 119.460938 L 208.167969 123.519531 Z M 199.84375 97.175781 L 198.769531 96.222656 L 193.957031 91.964844 L 192.789062 90.933594 L 192.789062 76.992188 L 193.957031 78.027344 L 198.769531 82.28125 L 199.84375 83.234375 Z M 199.84375 113.636719 L 198.769531 112.683594 L 193.957031 108.425781 L 192.789062 107.390625 L 192.789062 93.449219 L 193.957031 94.480469 L 198.769531 98.742188 L 199.84375 99.691406 Z M 199.84375 130.09375 L 198.769531 129.140625 L 193.957031 124.882812 L 192.789062 123.851562 L 192.789062 109.90625 L 193.957031 110.941406 L 198.769531 115.199219 L 199.84375 116.148438 Z M 199.84375 146.554688 L 198.769531 145.601562 L 193.957031 141.34375 L 192.789062 140.3125 L 192.789062 126.367188 L 193.957031 127.402344 L 198.769531 131.660156 L 199.84375 132.609375 Z M 191.519531 89.808594 L 189.140625 87.707031 L 184.9375 83.988281 L 184.464844 83.566406 L 184.464844 69.625 L 184.9375 70.046875 L 189.140625 73.765625 L 191.519531 75.871094 Z M 191.519531 106.269531 L 189.140625 104.164062 L 184.9375 100.445312 L 184.464844 100.023438 L 184.464844 86.082031 L 184.9375 86.503906 L 189.140625 90.222656 L 191.519531 92.328125 Z M 191.519531 122.726562 L 189.140625 120.625 L 184.9375 116.902344 L 184.464844 116.484375 L 184.464844 102.539062 L 184.9375 102.964844 L 189.140625 106.679688 L 191.519531 108.789062 Z M 191.519531 139.1875 L 189.140625 137.078125 L 184.9375 133.363281 L 184.464844 132.941406 L 184.464844 119 L 184.9375 119.421875 L 189.140625 123.140625 L 191.519531 125.242188 Z M 191.519531 155.644531 L 189.140625 153.539062 L 184.9375 149.820312 L 184.464844 149.398438 L 184.464844 135.457031 L 184.9375 135.878906 L 189.140625 139.597656 L 191.519531 141.703125 Z M 191.519531 172.101562 L 189.140625 169.996094 L 184.9375 166.277344 L 184.464844 165.855469 L 184.464844 151.914062 L 184.9375 152.335938 L 189.140625 156.054688 L 191.519531 158.160156 Z M 191.519531 188.5625 L 189.140625 186.453125 L 184.9375 182.738281 L 184.464844 182.3125 L 184.464844 168.375 L 184.9375 168.796875 L 189.140625 172.511719 L 191.519531 174.617188 Z M 216.636719 93.632812 L 208.097656 86.074219 L 203.285156 81.8125 L 198.472656 77.554688 L 193.65625 73.296875 L 188.84375 69.03125 L 184.644531 65.316406 L 181.164062 62.234375 L 152.933594 82.628906 L 152.933594 114.101562 L 172.371094 122.007812 L 174.179688 122.738281 L 174.179688 199.691406 L 187.507812 201.46875 L 184.9375 199.199219 L 184.464844 198.773438 L 184.464844 184.835938 L 184.9375 185.253906 L 189.140625 188.972656 L 191.519531 191.078125 L 191.519531 195.816406 L 192.789062 195.816406 L 192.789062 192.199219 L 192.796875 192.207031 L 192.796875 189.6875 L 192.789062 189.683594 L 192.789062 175.742188 L 192.796875 175.75 L 192.796875 173.230469 L 192.789062 173.226562 L 192.789062 159.28125 L 192.796875 159.289062 L 192.796875 156.773438 L 192.789062 156.765625 L 192.789062 142.824219 L 193.957031 143.855469 L 198.769531 148.113281 L 199.84375 149.066406 L 199.84375 151.410156 L 201.109375 150.679688 L 201.109375 150.1875 L 201.445312 150.484375 L 203.164062 149.492188 L 201.109375 147.675781 L 201.109375 133.730469 L 203.582031 135.921875 L 208.167969 139.976562 L 208.167969 146.609375 L 209.433594 145.878906 L 209.433594 141.097656 L 212.703125 143.996094 L 212.902344 143.878906 L 214.425781 143 L 209.433594 138.582031 L 209.433594 124.640625 L 216.488281 130.890625 L 216.488281 141.8125 L 218.726562 140.527344 L 218.726562 95.484375 L 216.636719 93.632812 " fill-opacity="1" fill-rule="nonzero"/></g><path fill="#7dcbc1" d="M 120.890625 135.269531 L 145.320312 121.617188 L 145.320312 127.171875 L 148.046875 125.234375 L 169.75 134.0625 L 169.75 126.222656 L 145.902344 116.523438 L 120.890625 135.269531 " fill-opacity="1" fill-rule="nonzero"/><path fill="#7dcbc1" d="M 120.890625 148.316406 L 145.320312 134.664062 L 145.320312 140.21875 L 148.046875 138.285156 L 169.75 147.109375 L 169.75 139.273438 L 145.902344 129.574219 L 120.890625 148.316406 " fill-opacity="1" fill-rule="nonzero"/><path fill="#7dcbc1" d="M 120.890625 161.367188 L 145.320312 147.714844 L 145.320312 153.269531 L 148.046875 151.332031 L 169.75 160.15625 L 169.75 152.320312 L 145.902344 142.621094 L 120.890625 161.367188 " fill-opacity="1" fill-rule="nonzero"/><path fill="#7dcbc1" d="M 120.890625 174.414062 L 145.320312 160.761719 L 145.320312 166.316406 L 148.046875 164.382812 L 169.75 173.207031 L 169.75 165.367188 L 145.902344 155.671875 L 120.890625 174.414062 " fill-opacity="1" fill-rule="nonzero"/><path fill="#7dcbc1" d="M 120.890625 187.460938 L 145.320312 173.8125 L 145.320312 179.367188 L 148.046875 177.429688 L 169.75 186.253906 L 169.75 178.417969 L 145.902344 168.71875 L 120.890625 187.460938 " fill-opacity="1" fill-rule="nonzero"/><path fill="#7dcbc1" d="M 120.890625 200.511719 L 127.003906 195.929688 L 125.304688 198.042969 Z M 120.890625 200.511719 " fill-opacity="1" fill-rule="nonzero"/><path fill="#7dcbc1" d="M 169.75 191.464844 L 169.75 199.304688 L 169.003906 199 L 148.046875 190.480469 L 145.320312 192.414062 L 145.320312 186.859375 L 132.347656 194.109375 L 131.289062 193.96875 L 129.875 193.777344 L 145.902344 181.769531 L 169.75 191.464844 " fill-opacity="1" fill-rule="nonzero"/><path fill="#7dcbc1" d="M 149.933594 196.453125 L 144.652344 195.75 L 145.902344 194.816406 Z M 149.933594 196.453125 " fill-opacity="1" fill-rule="nonzero"/><g clip-path="url(#8c8eafef73)"><path fill="#1e4164" d="M 156.507812 238.386719 C 156.058594 238.011719 139.035156 226.695312 130.707031 219.890625 L 87.796875 256.363281 L 127.519531 214.613281 L 130.703125 211.265625 L 136.109375 216.945312 L 156.507812 238.386719 " fill-opacity="1" fill-rule="nonzero"/></g><path fill="#1e4164" d="M 205.976562 222.804688 L 189.015625 222.804688 L 189.015625 228.675781 L 182.292969 229.496094 L 180.84375 229.667969 L 179.792969 230.675781 L 167.285156 242.644531 L 130.707031 204.207031 L 100.257812 236.207031 L 130.707031 198.304688 L 191.367188 206.398438 L 191.367188 213.8125 L 194.558594 217.167969 L 194.558594 200.195312 L 204.539062 200.195312 L 204.539062 206.671875 L 217.398438 208.289062 L 233.570312 223.769531 L 205.976562 227.621094 L 205.976562 222.804688 " fill-opacity="1" fill-rule="nonzero"/><path fill="#1e4164" d="M 122.355469 241.460938 L 122.355469 243.339844 L 129.253906 243.339844 L 129.253906 234.558594 C 125.445312 234.558594 122.355469 237.648438 122.355469 241.460938 " fill-opacity="1" fill-rule="nonzero"/><path fill="#1e4164" d="M 131.972656 234.558594 L 131.972656 243.339844 L 138.871094 243.339844 L 138.871094 241.460938 C 138.871094 237.648438 135.78125 234.558594 131.972656 234.558594 " fill-opacity="1" fill-rule="nonzero"/><path fill="#1e4164" d="M 122.355469 252.953125 L 129.253906 252.953125 L 129.253906 246.050781 L 122.355469 246.050781 L 122.355469 252.953125 " fill-opacity="1" fill-rule="nonzero"/><path fill="#1e4164" d="M 131.972656 252.953125 L 138.871094 252.953125 L 138.871094 246.050781 L 131.972656 246.050781 L 131.972656 252.953125 " fill-opacity="1" fill-rule="nonzero"/><g clip-path="url(#be97160718)"><path fill="#1e4164" d="M 287.183594 273.375 L 262.378906 252.292969 L 251.894531 243.378906 C 248.71875 245.976562 244 249.371094 239.824219 252.292969 C 234.992188 255.675781 230.871094 258.425781 230.675781 258.589844 L 236.667969 252.292969 L 247.453125 240.960938 L 249.394531 238.917969 L 251.894531 236.289062 L 254.515625 239.039062 L 287.183594 273.375 " fill-opacity="1" fill-rule="nonzero"/></g><path fill="#1e4164" d="M 276.9375 256.796875 L 251.894531 230.480469 L 246.503906 236.148438 L 231.140625 252.292969 L 214.261719 270.027344 L 145.011719 270.027344 L 170.300781 245.816406 L 182.816406 233.839844 L 193.394531 232.554688 L 193.394531 227.183594 L 201.601562 227.183594 L 201.601562 241.140625 L 204.226562 238.382812 L 204.226562 232.285156 L 237.597656 227.625 L 251.894531 225.628906 L 276.9375 256.796875 " fill-opacity="1" fill-rule="nonzero"/><path fill="#1e4164" d="M 258.765625 261.121094 L 258.765625 262.667969 L 253.089844 262.667969 L 253.089844 255.445312 C 256.222656 255.445312 258.765625 257.984375 258.765625 261.121094 " fill-opacity="1" fill-rule="nonzero"/><path fill="#1e4164" d="M 250.855469 255.445312 L 250.855469 262.667969 L 245.179688 262.667969 L 245.179688 261.121094 C 245.179688 257.984375 247.71875 255.445312 250.855469 255.445312 " fill-opacity="1" fill-rule="nonzero"/><path fill="#1e4164" d="M 258.765625 270.570312 L 253.089844 270.570312 L 253.089844 264.894531 L 258.765625 264.894531 L 258.765625 270.570312 " fill-opacity="1" fill-rule="nonzero"/><path fill="#1e4164" d="M 250.855469 270.570312 L 245.179688 270.570312 L 245.179688 264.894531 L 250.855469 264.894531 L 250.855469 270.570312 " fill-opacity="1" fill-rule="nonzero"/><path fill="#1e4164" d="M 169.003906 199 L 169.75 199.304688 L 169.75 199.101562 Z M 169.003906 199 " fill-opacity="1" fill-rule="nonzero"/><g transform="matrix(1, 0, 0, 1, 91, 332)"><g clip-path="url(#82ca6b2df0)"><g fill="#7dcbc1" fill-opacity="1"><g transform="translate(1.709805, 13.684274)"><g><path d="M 5.9375 -10.765625 C 6.882812 -10.765625 7.707031 -10.601562 8.40625 -10.28125 C 9.113281 -9.96875 9.65625 -9.519531 10.03125 -8.9375 C 10.414062 -8.351562 10.609375 -7.660156 10.609375 -6.859375 C 10.609375 -6.066406 10.414062 -5.375 10.03125 -4.78125 C 9.65625 -4.195312 9.113281 -3.75 8.40625 -3.4375 C 7.707031 -3.125 6.882812 -2.96875 5.9375 -2.96875 L 3.765625 -2.96875 L 3.765625 0 L 1.28125 0 L 1.28125 -10.765625 Z M 5.796875 -5 C 6.546875 -5 7.113281 -5.160156 7.5 -5.484375 C 7.894531 -5.804688 8.09375 -6.265625 8.09375 -6.859375 C 8.09375 -7.460938 7.894531 -7.925781 7.5 -8.25 C 7.113281 -8.570312 6.546875 -8.734375 5.796875 -8.734375 L 3.765625 -8.734375 L 3.765625 -5 Z M 5.796875 -5 "/></g></g></g><g fill="#7dcbc1" fill-opacity="1"><g transform="translate(14.13193, 13.684274)"><g><path d="M 8.140625 0 L 6.0625 -3 L 3.765625 -3 L 3.765625 0 L 1.28125 0 L 1.28125 -10.765625 L 5.9375 -10.765625 C 6.882812 -10.765625 7.707031 -10.601562 8.40625 -10.28125 C 9.113281 -9.96875 9.65625 -9.519531 10.03125 -8.9375 C 10.414062 -8.351562 10.609375 -7.660156 10.609375 -6.859375 C 10.609375 -6.054688 10.414062 -5.363281 10.03125 -4.78125 C 9.644531 -4.207031 9.097656 -3.765625 8.390625 -3.453125 L 10.8125 0 Z M 8.09375 -6.859375 C 8.09375 -7.460938 7.894531 -7.925781 7.5 -8.25 C 7.113281 -8.570312 6.546875 -8.734375 5.796875 -8.734375 L 3.765625 -8.734375 L 3.765625 -4.984375 L 5.796875 -4.984375 C 6.546875 -4.984375 7.113281 -5.144531 7.5 -5.46875 C 7.894531 -5.800781 8.09375 -6.265625 8.09375 -6.859375 Z M 8.09375 -6.859375 "/></g></g></g><g fill="#7dcbc1" fill-opacity="1"><g transform="translate(26.600118, 13.684274)"><g><path d="M 9.609375 -2 L 9.609375 0 L 1.28125 0 L 1.28125 -10.765625 L 9.40625 -10.765625 L 9.40625 -8.765625 L 3.75 -8.765625 L 3.75 -6.421875 L 8.75 -6.421875 L 8.75 -4.484375 L 3.75 -4.484375 L 3.75 -2 Z M 9.609375 -2 "/></g></g></g><g fill="#7dcbc1" fill-opacity="1"><g transform="translate(38.085692, 13.684274)"><g><path d="M 11.0625 0 L 11.046875 -6.453125 L 7.890625 -1.140625 L 6.765625 -1.140625 L 3.609375 -6.3125 L 3.609375 0 L 1.28125 0 L 1.28125 -10.765625 L 3.34375 -10.765625 L 7.359375 -4.078125 L 11.328125 -10.765625 L 13.375 -10.765625 L 13.40625 0 Z M 11.0625 0 "/></g></g></g><g fill="#7dcbc1" fill-opacity="1"><g transform="translate(53.931607, 13.684274)"><g><path d="M 1.28125 -10.765625 L 3.765625 -10.765625 L 3.765625 0 L 1.28125 0 Z M 1.28125 -10.765625 "/></g></g></g><g fill="#7dcbc1" fill-opacity="1"><g transform="translate(60.150999, 13.684274)"><g><path d="M 6.0625 0.1875 C 4.519531 0.1875 3.320312 -0.238281 2.46875 -1.09375 C 1.613281 -1.945312 1.1875 -3.160156 1.1875 -4.734375 L 1.1875 -10.765625 L 3.671875 -10.765625 L 3.671875 -4.828125 C 3.671875 -2.898438 4.472656 -1.9375 6.078125 -1.9375 C 6.847656 -1.9375 7.4375 -2.171875 7.84375 -2.640625 C 8.257812 -3.109375 8.46875 -3.835938 8.46875 -4.828125 L 8.46875 -10.765625 L 10.9375 -10.765625 L 10.9375 -4.734375 C 10.9375 -3.160156 10.503906 -1.945312 9.640625 -1.09375 C 8.785156 -0.238281 7.59375 0.1875 6.0625 0.1875 Z M 6.0625 0.1875 "/></g></g></g><g fill="#7dcbc1" fill-opacity="1"><g transform="translate(73.432906, 13.684274)"><g><path d="M 11.0625 0 L 11.046875 -6.453125 L 7.890625 -1.140625 L 6.765625 -1.140625 L 3.609375 -6.3125 L 3.609375 0 L 1.28125 0 L 1.28125 -10.765625 L 3.34375 -10.765625 L 7.359375 -4.078125 L 11.328125 -10.765625 L 13.375 -10.765625 L 13.40625 0 Z M 11.0625 0 "/></g></g></g><g fill="#7dcbc1" fill-opacity="1"><g transform="translate(89.278821, 13.684274)"><g/></g></g><g fill="#7dcbc1" fill-opacity="1"><g transform="translate(94.807306, 13.684274)"><g><path d="M 5.9375 -10.765625 C 6.882812 -10.765625 7.707031 -10.601562 8.40625 -10.28125 C 9.113281 -9.96875 9.65625 -9.519531 10.03125 -8.9375 C 10.414062 -8.351562 10.609375 -7.660156 10.609375 -6.859375 C 10.609375 -6.066406 10.414062 -5.375 10.03125 -4.78125 C 9.65625 -4.195312 9.113281 -3.75 8.40625 -3.4375 C 7.707031 -3.125 6.882812 -2.96875 5.9375 -2.96875 L 3.765625 -2.96875 L 3.765625 0 L 1.28125 0 L 1.28125 -10.765625 Z M 5.796875 -5 C 6.546875 -5 7.113281 -5.160156 7.5 -5.484375 C 7.894531 -5.804688 8.09375 -6.265625 8.09375 -6.859375 C 8.09375 -7.460938 7.894531 -7.925781 7.5 -8.25 C 7.113281 -8.570312 6.546875 -8.734375 5.796875 -8.734375 L 3.765625 -8.734375 L 3.765625 -5 Z M 5.796875 -5 "/></g></g></g><g fill="#7dcbc1" fill-opacity="1"><g transform="translate(107.229432, 13.684274)"><g><path d="M 8.140625 0 L 6.0625 -3 L 3.765625 -3 L 3.765625 0 L 1.28125 0 L 1.28125 -10.765625 L 5.9375 -10.765625 C 6.882812 -10.765625 7.707031 -10.601562 8.40625 -10.28125 C 9.113281 -9.96875 9.65625 -9.519531 10.03125 -8.9375 C 10.414062 -8.351562 10.609375 -7.660156 10.609375 -6.859375 C 10.609375 -6.054688 10.414062 -5.363281 10.03125 -4.78125 C 9.644531 -4.207031 9.097656 -3.765625 8.390625 -3.453125 L 10.8125 0 Z M 8.09375 -6.859375 C 8.09375 -7.460938 7.894531 -7.925781 7.5 -8.25 C 7.113281 -8.570312 6.546875 -8.734375 5.796875 -8.734375 L 3.765625 -8.734375 L 3.765625 -4.984375 L 5.796875 -4.984375 C 6.546875 -4.984375 7.113281 -5.144531 7.5 -5.46875 C 7.894531 -5.800781 8.09375 -6.265625 8.09375 -6.859375 Z M 8.09375 -6.859375 "/></g></g></g><g fill="#7dcbc1" fill-opacity="1"><g transform="translate(119.697619, 13.684274)"><g><path d="M 6.484375 0.1875 C 5.367188 0.1875 4.363281 -0.0507812 3.46875 -0.53125 C 2.570312 -1.019531 1.867188 -1.6875 1.359375 -2.53125 C 0.847656 -3.375 0.59375 -4.320312 0.59375 -5.375 C 0.59375 -6.4375 0.847656 -7.390625 1.359375 -8.234375 C 1.867188 -9.078125 2.570312 -9.738281 3.46875 -10.21875 C 4.363281 -10.707031 5.367188 -10.953125 6.484375 -10.953125 C 7.609375 -10.953125 8.613281 -10.707031 9.5 -10.21875 C 10.394531 -9.738281 11.097656 -9.078125 11.609375 -8.234375 C 12.117188 -7.390625 12.375 -6.4375 12.375 -5.375 C 12.375 -4.320312 12.117188 -3.375 11.609375 -2.53125 C 11.097656 -1.6875 10.394531 -1.019531 9.5 -0.53125 C 8.613281 -0.0507812 7.609375 0.1875 6.484375 0.1875 Z M 6.484375 -1.9375 C 7.117188 -1.9375 7.691406 -2.082031 8.203125 -2.375 C 8.722656 -2.664062 9.128906 -3.070312 9.421875 -3.59375 C 9.710938 -4.113281 9.859375 -4.707031 9.859375 -5.375 C 9.859375 -6.039062 9.710938 -6.632812 9.421875 -7.15625 C 9.128906 -7.6875 8.722656 -8.097656 8.203125 -8.390625 C 7.691406 -8.679688 7.117188 -8.828125 6.484375 -8.828125 C 5.847656 -8.828125 5.273438 -8.679688 4.765625 -8.390625 C 4.253906 -8.097656 3.851562 -7.6875 3.5625 -7.15625 C 3.269531 -6.632812 3.125 -6.039062 3.125 -5.375 C 3.125 -4.707031 3.269531 -4.113281 3.5625 -3.59375 C 3.851562 -3.070312 4.253906 -2.664062 4.765625 -2.375 C 5.273438 -2.082031 5.847656 -1.9375 6.484375 -1.9375 Z M 6.484375 -1.9375 "/></g></g></g><g fill="#7dcbc1" fill-opacity="1"><g transform="translate(133.839325, 13.684274)"><g><path d="M 5.9375 -10.765625 C 6.882812 -10.765625 7.707031 -10.601562 8.40625 -10.28125 C 9.113281 -9.96875 9.65625 -9.519531 10.03125 -8.9375 C 10.414062 -8.351562 10.609375 -7.660156 10.609375 -6.859375 C 10.609375 -6.066406 10.414062 -5.375 10.03125 -4.78125 C 9.65625 -4.195312 9.113281 -3.75 8.40625 -3.4375 C 7.707031 -3.125 6.882812 -2.96875 5.9375 -2.96875 L 3.765625 -2.96875 L 3.765625 0 L 1.28125 0 L 1.28125 -10.765625 Z M 5.796875 -5 C 6.546875 -5 7.113281 -5.160156 7.5 -5.484375 C 7.894531 -5.804688 8.09375 -6.265625 8.09375 -6.859375 C 8.09375 -7.460938 7.894531 -7.925781 7.5 -8.25 C 7.113281 -8.570312 6.546875 -8.734375 5.796875 -8.734375 L 3.765625 -8.734375 L 3.765625 -5 Z M 5.796875 -5 "/></g></g></g><g fill="#7dcbc1" fill-opacity="1"><g transform="translate(146.26145, 13.684274)"><g><path d="M 9.609375 -2 L 9.609375 0 L 1.28125 0 L 1.28125 -10.765625 L 9.40625 -10.765625 L 9.40625 -8.765625 L 3.75 -8.765625 L 3.75 -6.421875 L 8.75 -6.421875 L 8.75 -4.484375 L 3.75 -4.484375 L 3.75 -2 Z M 9.609375 -2 "/></g></g></g><g fill="#7dcbc1" fill-opacity="1"><g transform="translate(157.747025, 13.684274)"><g><path d="M 8.140625 0 L 6.0625 -3 L 3.765625 -3 L 3.765625 0 L 1.28125 0 L 1.28125 -10.765625 L 5.9375 -10.765625 C 6.882812 -10.765625 7.707031 -10.601562 8.40625 -10.28125 C 9.113281 -9.96875 9.65625 -9.519531 10.03125 -8.9375 C 10.414062 -8.351562 10.609375 -7.660156 10.609375 -6.859375 C 10.609375 -6.054688 10.414062 -5.363281 10.03125 -4.78125 C 9.644531 -4.207031 9.097656 -3.765625 8.390625 -3.453125 L 10.8125 0 Z M 8.09375 -6.859375 C 8.09375 -7.460938 7.894531 -7.925781 7.5 -8.25 C 7.113281 -8.570312 6.546875 -8.734375 5.796875 -8.734375 L 3.765625 -8.734375 L 3.765625 -4.984375 L 5.796875 -4.984375 C 6.546875 -4.984375 7.113281 -5.144531 7.5 -5.46875 C 7.894531 -5.800781 8.09375 -6.265625 8.09375 -6.859375 Z M 8.09375 -6.859375 "/></g></g></g><g fill="#7dcbc1" fill-opacity="1"><g transform="translate(170.215212, 13.684274)"><g><path d="M 3.5 -8.734375 L 0.0625 -8.734375 L 0.0625 -10.765625 L 9.4375 -10.765625 L 9.4375 -8.734375 L 6 -8.734375 L 6 0 L 3.5 0 Z M 3.5 -8.734375 "/></g></g></g><g fill="#7dcbc1" fill-opacity="1"><g transform="translate(180.887067, 13.684274)"><g><path d="M 6.4375 -3.8125 L 6.4375 0 L 3.953125 0 L 3.953125 -3.84375 L -0.21875 -10.765625 L 2.421875 -10.765625 L 5.296875 -5.984375 L 8.171875 -10.765625 L 10.625 -10.765625 Z M 6.4375 -3.8125 "/></g></g></g></g></g><g transform="matrix(1, 0, 0, 1, 34, 278)"><g clip-path="url(#65c02740e0)"><g fill="#1e4164" fill-opacity="1"><g transform="translate(1.07526, 43.801776)"><g><path d="M 24.21875 0 L 17.9375 -9 C 17.675781 -8.96875 17.285156 -8.953125 16.765625 -8.953125 L 9.828125 -8.953125 L 9.828125 0 L 4.125 0 L 4.125 -30.71875 L 16.765625 -30.71875 C 19.421875 -30.71875 21.734375 -30.273438 23.703125 -29.390625 C 25.679688 -28.515625 27.195312 -27.257812 28.25 -25.625 C 29.300781 -23.988281 29.828125 -22.039062 29.828125 -19.78125 C 29.828125 -17.476562 29.265625 -15.488281 28.140625 -13.8125 C 27.015625 -12.144531 25.398438 -10.90625 23.296875 -10.09375 L 30.359375 0 Z M 24.09375 -19.78125 C 24.09375 -21.75 23.445312 -23.257812 22.15625 -24.3125 C 20.863281 -25.363281 18.976562 -25.890625 16.5 -25.890625 L 9.828125 -25.890625 L 9.828125 -13.640625 L 16.5 -13.640625 C 18.976562 -13.640625 20.863281 -14.171875 22.15625 -15.234375 C 23.445312 -16.304688 24.09375 -17.820312 24.09375 -19.78125 Z M 24.09375 -19.78125 "/></g></g></g><g fill="#1e4164" fill-opacity="1"><g transform="translate(33.149922, 43.801776)"><g><path d="M 27.15625 -4.78125 L 27.15625 0 L 4.125 0 L 4.125 -30.71875 L 26.546875 -30.71875 L 26.546875 -25.9375 L 9.828125 -25.9375 L 9.828125 -17.9375 L 24.65625 -17.9375 L 24.65625 -13.25 L 9.828125 -13.25 L 9.828125 -4.78125 Z M 27.15625 -4.78125 "/></g></g></g><g fill="#1e4164" fill-opacity="1"><g transform="translate(62.548043, 43.801776)"><g><path d="M 24.046875 -7.109375 L 8.6875 -7.109375 L 5.65625 0 L -0.21875 0 L 13.59375 -30.71875 L 19.21875 -30.71875 L 33.078125 0 L 27.109375 0 Z M 22.15625 -11.578125 L 16.359375 -25.015625 L 10.625 -11.578125 Z M 22.15625 -11.578125 "/></g></g></g><g fill="#1e4164" fill-opacity="1"><g transform="translate(95.41252, 43.801776)"><g><path d="M 4.125 -30.71875 L 9.828125 -30.71875 L 9.828125 -4.828125 L 25.890625 -4.828125 L 25.890625 0 L 4.125 0 Z M 4.125 -30.71875 "/></g></g></g><g fill="#1e4164" fill-opacity="1"><g transform="translate(121.695311, 43.801776)"><g/></g></g><g fill="#1e4164" fill-opacity="1"><g transform="translate(133.805588, 43.801776)"><g><path d="M 27.15625 -4.78125 L 27.15625 0 L 4.125 0 L 4.125 -30.71875 L 26.546875 -30.71875 L 26.546875 -25.9375 L 9.828125 -25.9375 L 9.828125 -17.9375 L 24.65625 -17.9375 L 24.65625 -13.25 L 9.828125 -13.25 L 9.828125 -4.78125 Z M 27.15625 -4.78125 "/></g></g></g><g fill="#1e4164" fill-opacity="1"><g transform="translate(163.20371, 43.801776)"><g><path d="M 13.640625 0.4375 C 11.273438 0.4375 8.988281 0.101562 6.78125 -0.5625 C 4.570312 -1.238281 2.820312 -2.132812 1.53125 -3.25 L 3.515625 -7.671875 C 4.765625 -6.679688 6.300781 -5.867188 8.125 -5.234375 C 9.957031 -4.609375 11.796875 -4.296875 13.640625 -4.296875 C 15.921875 -4.296875 17.625 -4.660156 18.75 -5.390625 C 19.882812 -6.128906 20.453125 -7.097656 20.453125 -8.296875 C 20.453125 -9.171875 20.132812 -9.890625 19.5 -10.453125 C 18.875 -11.023438 18.078125 -11.472656 17.109375 -11.796875 C 16.140625 -12.117188 14.820312 -12.488281 13.15625 -12.90625 C 10.820312 -13.457031 8.929688 -14.007812 7.484375 -14.5625 C 6.035156 -15.125 4.789062 -15.992188 3.75 -17.171875 C 2.707031 -18.359375 2.1875 -19.960938 2.1875 -21.984375 C 2.1875 -23.679688 2.644531 -25.222656 3.5625 -26.609375 C 4.488281 -27.992188 5.878906 -29.097656 7.734375 -29.921875 C 9.597656 -30.742188 11.875 -31.15625 14.5625 -31.15625 C 16.4375 -31.15625 18.28125 -30.921875 20.09375 -30.453125 C 21.90625 -29.984375 23.472656 -29.3125 24.796875 -28.4375 L 22.984375 -24 C 21.640625 -24.789062 20.234375 -25.390625 18.765625 -25.796875 C 17.304688 -26.203125 15.890625 -26.40625 14.515625 -26.40625 C 12.265625 -26.40625 10.59375 -26.023438 9.5 -25.265625 C 8.40625 -24.503906 7.859375 -23.5 7.859375 -22.25 C 7.859375 -21.363281 8.171875 -20.644531 8.796875 -20.09375 C 9.421875 -19.539062 10.21875 -19.101562 11.1875 -18.78125 C 12.15625 -18.457031 13.472656 -18.09375 15.140625 -17.6875 C 17.421875 -17.15625 19.289062 -16.601562 20.75 -16.03125 C 22.21875 -15.46875 23.46875 -14.597656 24.5 -13.421875 C 25.539062 -12.253906 26.0625 -10.675781 26.0625 -8.6875 C 26.0625 -6.988281 25.597656 -5.453125 24.671875 -4.078125 C 23.753906 -2.703125 22.359375 -1.601562 20.484375 -0.78125 C 18.617188 0.03125 16.335938 0.4375 13.640625 0.4375 Z M 13.640625 0.4375 "/></g></g></g><g fill="#1e4164" fill-opacity="1"><g transform="translate(190.802835, 43.801776)"><g><path d="M 10.359375 -25.890625 L 0.171875 -25.890625 L 0.171875 -30.71875 L 26.234375 -30.71875 L 26.234375 -25.890625 L 16.0625 -25.890625 L 16.0625 0 L 10.359375 0 Z M 10.359375 -25.890625 "/></g></g></g><g fill="#1e4164" fill-opacity="1"><g transform="translate(217.217266, 43.801776)"><g><path d="M 24.046875 -7.109375 L 8.6875 -7.109375 L 5.65625 0 L -0.21875 0 L 13.59375 -30.71875 L 19.21875 -30.71875 L 33.078125 0 L 27.109375 0 Z M 22.15625 -11.578125 L 16.359375 -25.015625 L 10.625 -11.578125 Z M 22.15625 -11.578125 "/></g></g></g><g fill="#1e4164" fill-opacity="1"><g transform="translate(250.081743, 43.801776)"><g><path d="M 10.359375 -25.890625 L 0.171875 -25.890625 L 0.171875 -30.71875 L 26.234375 -30.71875 L 26.234375 -25.890625 L 16.0625 -25.890625 L 16.0625 0 L 10.359375 0 Z M 10.359375 -25.890625 "/></g></g></g><g fill="#1e4164" fill-opacity="1"><g transform="translate(276.496174, 43.801776)"><g><path d="M 27.15625 -4.78125 L 27.15625 0 L 4.125 0 L 4.125 -30.71875 L 26.546875 -30.71875 L 26.546875 -25.9375 L 9.828125 -25.9375 L 9.828125 -17.9375 L 24.65625 -17.9375 L 24.65625 -13.25 L 9.828125 -13.25 L 9.828125 -4.78125 Z M 27.15625 -4.78125 "/></g></g></g></g></g></svg>